<?xml version="1.0" encoding="UTF-8" standalone="no"?>
<!-- Created with Inkscape (http://www.inkscape.org/) -->

<svg
   width="500"
   height="500"
   viewBox="0 0 132.29166 132.29166"
   version="1.1"
   id="svg5"
   xml:space="preserve"
   inkscape:version="1.2 (dc2aedaf03, 2022-05-15)"
   sodipodi:docname="me.svg"
   xmlns:inkscape="http://www.inkscape.org/namespaces/inkscape"
   xmlns:sodipodi="http://sodipodi.sourceforge.net/DTD/sodipodi-0.dtd"
   xmlns="http://www.w3.org/2000/svg"
   xmlns:svg="http://www.w3.org/2000/svg"><sodipodi:namedview
     id="namedview7"
     pagecolor="#ffffff"
     bordercolor="#000000"
     borderopacity="0.25"
     inkscape:showpageshadow="2"
     inkscape:pageopacity="0.0"
     inkscape:pagecheckerboard="0"
     inkscape:deskcolor="#d1d1d1"
     inkscape:document-units="mm"
     showgrid="false"
     showguides="false"
     inkscape:zoom="1"
     inkscape:cx="-7"
     inkscape:cy="230.5"
     inkscape:window-width="3840"
     inkscape:window-height="2054"
     inkscape:window-x="-11"
     inkscape:window-y="-11"
     inkscape:window-maximized="1"
     inkscape:current-layer="layer3" /><defs
     id="defs2" /><g
     inkscape:groupmode="layer"
     id="layer3"
     inkscape:label="Outline"
     style="opacity:1"><g
       id="g1969"><circle
         style="fill:#cadff5;stroke-width:0.171;stroke-linecap:round;fill-opacity:1;stroke-dasharray:none"
         id="path10508"
         cx="66.145836"
         cy="66.145836"
         r="66.145836" /><g
         id="g10532"
         transform="matrix(1.327675,0,0,1.327675,-20.016075,-5.541476)"><path
           style="fill:#f0dea4;stroke:#000000;stroke-width:0.165;stroke-linecap:round;fill-opacity:1"
           d="m 54.013747,20.046888 4.194586,-5.957826 2.711979,-0.79375 4.7625,0.595313 4.43177,2.182812 3.770313,1.521354 3.175,2.778125 1.918229,2.976563 0.396875,1.719792 -0.79375,6.217708"
           id="path6281"
           sodipodi:nodetypes="cccccccccc" /><path
           id="rect10453"
           style="fill:#cadff5;stroke-width:0.165;stroke-linecap:round;fill-opacity:1"
           d="m 28.699023,68.320373 17.601699,-16.254081 6.580025,6.640455 0.164316,1.440089 1.712176,1.970299 -4.494675,14.669905 -26.987499,4.630208 z"
           sodipodi:nodetypes="cccccccc" /><path
           style="fill:#cadff5;stroke:#000000;stroke-width:0.165;stroke-linecap:round;fill-opacity:1"
           d="m 72.760416,51.130729 0.79375,1.25677 16.205729,6.879167 5.55625,3.96875 10.186455,16.33802 0.79375,1.852084"
           id="path6293"
           sodipodi:nodetypes="cccccc" /><path
           style="fill:#f9f1db;stroke:#000000;stroke-width:0.165;stroke-linecap:round;fill-opacity:1"
           d="m 75.009374,43.986979 -2.778125,8.863541 0.132292,2.645833 0.859896,5.291668 -2.38125,4.828645 -3.638021,8.400521 -1.785937,4.696354 v 1.190625 L 56.025521,63.5 53.048958,60.192708 52.850521,58.671354"
           id="path6277" /><path
           style="fill:#f0dea4;stroke:#000000;stroke-width:0.165;stroke-linecap:round;fill-opacity:1"
           d="m 47.757291,31.286979 -2.579687,-3.307292 -1.322917,-3.638021 0.926042,-2.910416 2.645833,-1.389063 5.820833,-0.198437 6.283854,1.322916 7.540625,2.910417 6.217708,3.373437 5.225521,3.836459 3.770313,3.902604 1.785937,3.241146 -0.529167,3.439583 -2.645833,1.785937 -3.505729,0.396875 -2.182812,-0.330729"
           id="path6279" /><path
           id="rect8941"
           style="fill:#f8f0d6;stroke-width:0.165;stroke-linecap:round"
           d="m 70.941406,38.463803 1.786972,-0.522649 2.394211,-0.425801 0.937308,0.249847 0.603123,0.797822 -0.110468,2.342627 -0.759459,1.885518 -0.816791,1.16274 -6.11849,4.431771 0.98604,-5.914399 z"
           sodipodi:nodetypes="ccccccccccc" /><path
           id="rect7118"
           style="fill:#5e5635;stroke-width:0.165;stroke-linecap:round;fill-opacity:1"
           d="m 46.717367,44.082082 19.827732,-14.802703 1.369067,0.819895 4.396326,3.060376 2.603,2.69674 1.237268,1.951573 -1.174155,-0.334114 -1.763165,0.286141 -2.313752,0.759872 -1.118752,4.02578 -1.787377,9.220992 -1.115679,2.11047 -3.83946,3.570836 -4.32926,1.499909 -5.931828,-0.169906 -3.424804,-0.592288 -2.576793,-1.401486 -0.913773,-2.477811 z"
           sodipodi:nodetypes="ccccccccccccccccccc" /><path
           id="rect6389"
           style="fill:#f9f1db;stroke-width:0.165;stroke-linecap:round;fill-opacity:1"
           d="m 47.74124,31.127633 3.067654,-5.443155 1.448537,-0.559179 2.349317,0.09735 5.497637,0.972751 6.47707,3.162 2.148077,4.311173 -3.294895,10.541573 -5.427302,2.63202 -2.717365,0.354891 -0.325233,-1.121311 -0.797296,-0.739427 -1.809648,-1.291358 -2.120136,-0.387697 -1.67435,0.07634 -2.14091,-0.635313 -0.859841,0.17088 -0.842879,0.782276 0.115912,-5.067525 1.338391,-3.622629 z"
           sodipodi:nodetypes="ccccccccccccccccccccc" /><path
           id="rect8996"
           style="fill:#393939;stroke-width:0.165;stroke-linecap:round;fill-opacity:1"
           d="m 45.422985,32.732501 1.805587,-0.09491 2.116995,0.3721 2.015476,1.05139 4.201506,-0.590914 3.40646,0.561858 1.735388,0.987825 13.263965,2.514596 -1.472531,0.499402 -11.087817,-1.779775 -0.999468,0.50703 -0.551526,2.216262 -0.512092,1.830089 -0.737531,0.596587 -2.382903,-0.033 -2.778101,-0.839547 -0.770228,-0.866958 -0.589915,-1.874386 -0.359549,-2.081074 -0.45914,-0.281679 -1.350449,1.39212 0.35372,-1.596872 -0.230454,-0.9277 -1.015977,-0.757 -2.300223,-0.429528 -0.587028,7.55e-4 -0.674753,0.0999 -0.182601,0.596868 -0.04676,2.10153 0.232085,2.523225 0.659187,0.259693 1.404976,0.273008 1.1403,0.11246 -0.222323,0.534184 -1.019169,-0.03319 -1.132859,-0.33316 -1.391382,-0.660977 -0.215293,-2.692688 0.223275,-2.368924 z"
           sodipodi:nodetypes="cccccccccccccccccccccccccccccccccccccccc" /><path
           style="fill:#ffffff;stroke:#000000;stroke-width:0.165;stroke-linecap:round"
           d="m 50.072395,36.644791 0.132292,-1.521354 -0.132292,-0.859896 -1.190625,-0.79375 -1.852083,-0.396875 -1.322917,0.06615 -0.330729,0.132292 -0.115755,0.545702 -0.08268,1.9513 0.198437,2.397789 0.06615,0.264584 0.79375,0.330729 1.124479,0.264583 1.322917,0.06615"
           id="path6289"
           sodipodi:nodetypes="cccccccccccccc" /><path
           style="fill:none;stroke:#000000;stroke-width:0.165;stroke-linecap:round"
           d="m 70.246874,46.50052 0.926042,0.529167 1.5875,-0.396875 1.389062,-1.521354 1.653646,-2.447396 0.727604,-1.719792 0.132292,-2.315104 -0.727604,-0.859896 -0.79375,-0.264583 -1.918229,0.264583 -2.315105,0.727605 -1.058333,3.770312 -1.785937,9.458854 -1.190625,1.984375 -3.836459,3.704167 -4.233333,1.455208 -6.151562,-0.132292 -3.307292,-0.595312 -2.579687,-1.322917 -0.926042,-2.513542 0.859896,-9.98802 0.125947,-4.883207 m 0.0063,-0.540751 1.322917,-3.50573 -0.18788,-2.035369 m -0.05686,-0.654958 -0.152135,-1.609152 3.042708,-5.357812 1.455209,-0.595312 2.315104,0.06614 5.490104,0.992188 4.431771,1.852083 3.439584,2.050521 4.43177,3.175 2.513542,2.579688 1.256771,1.984375"
           id="path6267"
           sodipodi:nodetypes="cccccccccccccccccccccccccccccccccccc" /><path
           style="fill:none;stroke:#000000;stroke-width:0.165;stroke-linecap:round"
           d="m 51.196874,35.454166 -1.322916,1.389063 -2.116667,4.233333 -0.132292,0.926042 0.463021,0.79375 0.727604,0.529166 1.719792,0.396875"
           id="path6269" /><path
           style="fill:none;stroke:#000000;stroke-width:0.165;stroke-linecap:round"
           d="m 52.85052,39.819791 -0.264583,0.661458 0.859896,0.727605 0.396875,0.79375 -0.132292,0.529166 -0.529167,0.463021 -0.727604,-0.396875 -1.124479,-0.132292 -0.859896,0.33073 -0.661458,0.264583 0.727604,0.661458"
           id="path6271" /><path
           style="fill:none;stroke:#000000;stroke-width:0.165;stroke-linecap:round"
           d="m 46.765104,44.053124 0.79375,-0.661458 0.859895,-0.264583"
           id="path6273" /><path
           style="fill:none;stroke:#000000;stroke-width:0.165;stroke-linecap:round"
           d="m 50.535416,43.788541 1.653646,-0.06615 2.116666,0.330729 1.455209,0.992188 1.124479,1.058333 0.396875,1.124479 2.844271,-0.396875 2.910416,-1.25677 2.38125,-1.389063 m 0,0 2.224154,-6.895703 m 0.28181,-0.946351 0.801328,-2.675133 -2.203483,-4.406967"
           id="path6275"
           sodipodi:nodetypes="cccccccccccccc" /><path
           style="fill:none;stroke:#000000;stroke-width:0.165;stroke-linecap:round"
           d="m 74.083332,37.504687 -13.427604,-2.447396 -1.719791,-0.992187 -3.439584,-0.595313 -2.315104,0.330729 -1.984375,0.33073 -0.661457,-0.463021 -1.12448,-0.661458 -1.918229,-0.330729 -1.322916,-0.06615 -0.727605,0.132291 -0.330729,0.33073 -0.198437,0.396875 -0.231033,2.298106 0.164883,2.332102 0.132292,0.529167 1.190625,0.595312 1.124479,0.330729 1.192459,0.06615"
           id="path6283"
           sodipodi:nodetypes="ccccccccccccccccccc" /><path
           style="fill:none;stroke:#000000;stroke-width:0.165;stroke-linecap:round"
           d="m 72.495832,38.033854 -11.178645,-1.785938 -0.926042,0.529167 -0.992187,3.902604 -0.79375,0.727604 h -2.38125 l -2.778125,-0.992187 -0.727604,-0.859896 -0.595312,-1.719791 -0.396875,-2.182813 -0.463021,-0.264583 -0.198438,0.264583"
           id="path6285" /><path
           style="fill:#ffffff;stroke:#000000;stroke-width:0.165;stroke-linecap:round"
           d="m 52.321354,34.991145 0.06614,1.91823 0.727604,2.513541 0.372071,0.587044 1.876888,0.802019 2.38125,0.264583 1.190625,-0.79375 0.661458,-4.7625 -0.661458,-0.727604 -1.653646,-0.661458 -2.513542,-0.198438 -1.5875,0.264583 z"
           id="path6287"
           sodipodi:nodetypes="ccccccccccccc" /><path
           style="fill:#cadff5;stroke:#000000;stroke-width:0.165;stroke-linecap:round;fill-opacity:1"
           d="m 45.971354,51.990624 -4.233334,2.447396 -8.069791,3.770313 -3.96875,3.704166 -2.645834,5.490104 -1.124479,3.373438 -1.984375,7.540625 -0.727604,3.108854"
           id="path6291" /><path
           style="fill:#cadff5;stroke:#000000;stroke-width:0.165;stroke-linecap:round;fill-opacity:1"
           d="m 64.73268,81.38357 -6.922283,-7.764179 -4.583671,-3.461142 -1.216078,-3.180506 0.09355,-1.028988 -5.612662,-2.80633 v -7.015826"
           id="path6295" /><path
           style="fill:none;stroke:#000000;stroke-width:0.165;stroke-linecap:round"
           d="M 66.322931,81.38357 78.203062,71.000148 76.145087,68.287362 78.951417,67.16483 78.015975,60.523183 76.519264,55.658879 73.619391,52.384827"
           id="path6297" /><path
           style="fill:#f8f0d6;stroke:#000000;stroke-width:0.165;stroke-linecap:round"
           d="m 48.736599,45.181914 2.806329,0.841899 3.554685,0.09354 0.374177,1.496712 -0.748356,1.216075 -2.057974,0.09354 -0.654812,-1.496709 -2.245064,-0.561266 -0.467719,1.122532 -1.216078,-0.467722 0.01046,-1.435249 z"
           id="path6299"
           sodipodi:nodetypes="cccccccccccc" /></g></g></g></svg>
