<?xml version="1.0" encoding="UTF-8" standalone="no"?>
<!-- Created with Inkscape (http://www.inkscape.org/) -->

<svg
   width="500"
   height="500"
   viewBox="0 0 132.29166 132.29167"
   version="1.1"
   id="svg5"
   xml:space="preserve"
   inkscape:version="1.2.1 (9c6d41e, 2022-07-14)"
   sodipodi:docname="test.svg"
   xmlns:inkscape="http://www.inkscape.org/namespaces/inkscape"
   xmlns:sodipodi="http://sodipodi.sourceforge.net/DTD/sodipodi-0.dtd"
   xmlns="http://www.w3.org/2000/svg"
   xmlns:svg="http://www.w3.org/2000/svg"><sodipodi:namedview
     id="namedview7"
     pagecolor="#ffffff"
     bordercolor="#000000"
     borderopacity="0.25"
     inkscape:showpageshadow="2"
     inkscape:pageopacity="0.0"
     inkscape:pagecheckerboard="0"
     inkscape:deskcolor="#d1d1d1"
     inkscape:document-units="mm"
     showgrid="false"
     inkscape:zoom="1.1893044"
     inkscape:cx="188.7658"
     inkscape:cy="274.95063"
     inkscape:window-width="1512"
     inkscape:window-height="842"
     inkscape:window-x="0"
     inkscape:window-y="38"
     inkscape:window-maximized="1"
     inkscape:current-layer="layer2" /><defs
     id="defs2" /><g
     inkscape:groupmode="layer"
     id="layer2"
     inkscape:label="Tracing"
     style="fill:#7b6a38"
     transform="translate(6.6740693,-2.6696277)"><circle
       style="fill:#41ae61;stroke-width:0.179469;stroke-linecap:round;stroke-linejoin:round;stroke-miterlimit:6.7"
       id="path39576"
       cx="66.145836"
       cy="66.145836"
       r="66.145836"
       transform="translate(-6.6740693,2.6696277)" /><path
       style="fill:#41ae61;stroke:#000000;stroke-width:0.165;stroke-linecap:round"
       d="m 62.137181,56.316736 1.179819,1.33713 11.95551,2.123676 15.337658,12.506092 3.618116,3.775422 5.42717,6.685647 2.595606,2.51695 2.91022,3.854077 0.31462,0.8652 -2.04502,-0.393271 -1.80906,-0.943856 -1.57309,0.393271 -1.337132,1.415786 -2.04502,1.022511 -21.000794,-17.933265 0.145732,0.987219 z"
       id="path8445"
       sodipodi:nodetypes="ccccccccccccccccc" /><path
       style="fill:#e2d7b0;stroke:#000000;stroke-width:0.165;stroke-linecap:round"
       d="m 35.551906,32.995629 -0.943856,0.353946 -0.196636,2.51695 0.07866,3.97206 -0.07866,2.67426 0.825873,1.769729 0.983184,0.353946 0.943856,-0.432602 -0.03933,-10.067795 z"
       id="path11704" /><path
       style="fill:#e2d7b0;stroke:#000000;stroke-width:0.165;stroke-linecap:round"
       d="m 61.979877,56.316736 -0.07866,4.955244 -1.730401,5.505826 -1.887712,4.876591 -3.303498,8.573357 -1.966364,-1.809057 -7.865468,-6.921611 -5.58448,-6.606992 -2.595603,-6.842954 1.494438,-1.101166 -0.196636,-7.39354 z"
       id="path8399"
       sodipodi:nodetypes="cccccccccccc" /><path
       style="stroke:#000000;stroke-width:0.165;stroke-linecap:round"
       d="m 35.394598,32.720338 1.258475,1.33713 0.314618,6.606992 0.314619,7.314883 1.415783,3.53946 3.539461,5.033897 6.685645,2.516949 6.056407,0.943856 4.797936,-1.179819 2.280986,-3.067532 3.146184,-4.71928 1.33713,-5.191207 v -3.618113 l -0.314618,-2.67426 -0.07866,-8.573358 -0.393271,-3.146186 0.471927,-3.382151 0.90337,-2.145076 -0.70789,-4.168697 -2.045023,-2.910223 -2.988876,-2.831567 -2.38104,-1.534923 -3.927144,-1.4753542 -4.930568,0.4258532 -4.955244,0.753967 -4.37767,2.438293 -2.45738,2.137171 -0.903373,2.956298 -0.960624,1.084396 -0.07865,2.988877 -0.550582,1.730403 -0.393274,5.427171 z"
       id="path8379"
       sodipodi:nodetypes="ccccccccccccccccccccccccccccccccc" /><path
       style="fill:#e2d7b0;stroke:#000000;stroke-width:0.165;stroke-linecap:round"
       d="m 39.877912,21.079449 -1.179819,3.38215 -0.550582,4.640625 -0.157311,4.247351 0.786548,6.606993 0.943856,5.899099 1.101164,2.595605 2.51695,0.629235 1.887712,-0.314619 -0.07866,-3.22484 0.235964,-1.730404 3.696769,-2.438294 2.67426,0.629238 2.752913,1.101166 3.067531,-0.15731 1.573094,-0.550582 1.887712,0.314618 2.04502,2.51695 0.15731,2.674257 -0.471929,0.786548 1.415786,0.70789 0.786545,-0.70789 0.865201,-5.899099 v -2.831568 l -0.314619,-8.887976 -0.629237,-3.303498 -3.146185,-6.135063 -2.67426,-2.831567 -4.561969,-2.280985 -5.977755,-0.629238 -4.326007,1.494439 z"
       id="path8381" /><path
       style="fill:#e2d7b0;stroke:#000000;stroke-width:0.165;stroke-linecap:round"
       d="m 47.900687,45.22643 6.449682,0.707893 4.090043,0.235963 1.887712,0.157308 -0.314619,2.438294 -0.629237,1.101167 -1.337128,1.573093 -1.49444,-0.629237 -0.471927,-1.809057 -0.786548,-1.494438 -1.887709,-0.235966 -1.258475,1.258475 -0.393274,1.258474 -1.966368,-0.235963 -1.101164,-0.786548 -1.022511,-1.651746 z"
       id="path8383" /><path
       style="fill:#424242;stroke:#000000;stroke-width:0.165;stroke-linecap:round"
       d="m 42.473517,29.023569 -1.415785,2.359641 0.07865,3.460803 1.494438,3.067534 1.809057,1.101164 3.696771,0.157308 2.752913,-1.651746 1.337128,-1.730404 1.33713,-2.280983 0.235963,-2.359642 -1.573093,-1.966364 -3.303495,-1.022512 -4.090043,-0.07865 z"
       id="path8385" /><path
       style="fill:#424242;stroke:#000000;stroke-width:0.165;stroke-linecap:round"
       d="m 56.945974,33.192267 0.707892,3.303495 1.573094,2.202331 2.04502,1.809057 2.752913,0.471929 2.516949,-1.651749 0.865201,-3.224842 -0.07865,-2.595602 -1.101166,-1.809057 -3.067532,-1.258475 -4.011387,-0.15731 -1.809057,0.8652 z"
       id="path8387" /><path
       style="fill:#bdbdbd;stroke:#000000;stroke-width:0.165;stroke-linecap:round"
       d="m 50.472649,28.670689 0.111233,-0.194659 3.364844,0.834257 2.574685,0.510676 2.530584,0.189892 0.973301,0.02781 v 0.250278 l -2.928052,-0.119381 -2.733389,-0.525569 -0.80645,-0.194659 z"
       id="path8389"
       sodipodi:nodetypes="ccccccccccc" /><path
       style="fill:#bdbdbd;stroke:#000000;stroke-width:0.165;stroke-linecap:round"
       d="m 53.642831,31.840871 0.333703,-0.472745 0.695216,-0.194661 1.700278,0.217698 0.500555,0.278085 0.25028,0.44494 -0.111237,0.723024 -0.166851,-0.08343 -0.02781,-0.778642 -1.310959,-0.467976 -1.028917,-0.05562 -0.444939,0.222467 -0.194659,0.723024 -0.22247,-0.05561 z"
       id="path8391"
       sodipodi:nodetypes="ccccccccccccccc" /><path
       style="fill:#bdbdbd;stroke:#000000;stroke-width:0.165;stroke-linecap:round"
       d="m 41.240186,31.423742 -1.056728,-0.08343 -0.723024,0.08343 -0.139044,0.500557 -3.058948,1.473856 0.250277,0.333703 3.142377,-1.640707 0.58398,0.250277 0.333703,-0.05562 -0.02781,-0.194659 0.611788,0.05561 z"
       id="path8393" /><path
       style="fill:#bdbdbd;stroke:#000000;stroke-width:0.165;stroke-linecap:round"
       d="m 67.352483,34.677352 0.917684,0.222467 -0.02781,0.444939 -0.83426,0.22247 z"
       id="path8395" /><path
       style="fill:#e2d7b0;stroke:#000000;stroke-width:0.165;stroke-linecap:round"
       d="m 51.872747,36.456434 -0.747218,2.320314 -0.589909,0.825873 0.07865,1.17982 0.471927,0.471929 1.140492,-0.235963 0.943856,0.196635 1.179819,0.629238 -0.11798,0.550582 0.747217,0.432601 1.140495,-0.275291 0.8652,-0.550584 0.471927,-0.471927 0.589912,-0.117983 0.03933,0.314619 h 0.314618 l 0.393274,-0.747218 -0.353946,-1.258475 -0.825873,-0.629237 -0.707893,-2.752913 -0.07866,-1.061839 -0.432599,-0.904528 -0.432602,-0.707893"
       id="path8397" /><path
       style="fill:#308047;stroke:#000000;stroke-width:0.165;stroke-linecap:round"
       d="m 38.147511,53.17055 -2.359642,1.179819 1.179822,3.539461 1.573094,-0.943856 z"
       id="path8401" /><path
       style="fill:none;stroke:#000000;stroke-width:0.165;stroke-linecap:round"
       d="m 62.058528,56.159428 7.629501,10.225106 -5.348517,3.932733 1.809056,2.516949 -8.101428,6.685645 -3.460805,4.247351 -0.393274,1.258475 3.460805,12.6634 2.359639,6.292373 1.874218,8.42492 1.14165,5.92608 3.184356,15.82308"
       id="path8405"
       sodipodi:nodetypes="cccccccccccc" /><path
       style="fill:#856a31;stroke:#000000;stroke-width:0.165;stroke-linecap:round"
       d="m 84.711068,55.923462 4.955244,-0.943856 3.775424,0.943856 3.696769,2.674261 0.943856,1.966364 1.022511,1.179822 1.179818,1.258475 v 0.629235 l -0.23596,0.786548 -0.471931,1.022511 -0.943856,1.022509 0.865203,1.415785 2.280984,2.280984 1.10117,1.887712 0.94385,1.730404 -0.94385,0.943856 -1.41579,1.101164 h -1.17982 l -1.494437,0.550582 -0.943856,0.393274 -4.090043,-1.179819 -1.101164,-1.33713 -2.123675,-1.573094 -2.438297,-1.651746 -2.595602,-0.393274 -1.809057,-10.539724 z"
       id="path8409" /><path
       style="fill:#b5b5b5;stroke-width:0.165;stroke-linecap:round"
       d="m 77.488725,67.547142 -0.155292,0.692019 0.836603,1.226777 c 1.394959,1.220995 2.020759,0.519094 3.031139,0.77864 l -2.169071,-1.557282 z"
       id="path11648"
       sodipodi:nodetypes="cccccc" /><path
       style="fill:none;stroke:#000000;stroke-width:0.165;stroke-linecap:round"
       d="m 86.429195,129.08762 -1.6129,-13.5706 -1.112342,-3.72636 -4.393764,-39.265774 -1.557282,1.167962"
       id="path11646"
       sodipodi:nodetypes="ccccc" /><path
       style="fill:#856a31;stroke-width:0.165;stroke-linecap:round"
       d="m 85.14367,68.547537 h 1.533765 l 1.219147,-0.432601 0.668566,0.668565 1.258474,-0.432602 1.022512,-1.179819 1.140491,0.314618 2.005693,0.353947 2.320314,-1.33713 -0.314619,-2.595603 1.415783,2.045021 1.101166,1.140491 1.533768,1.455113 -1.37646,-2.005695 0.786548,-1.533765 -0.235963,-2.398967 -2.163003,-4.090043 -3.618116,-2.516949 -3.736097,-0.943856 -4.994571,0.943856 -1.769729,5.230534 0.275291,5.30919 z"
       id="path9012" /><path
       style="fill:#e2e2e2;stroke-width:0.165;stroke-linecap:round"
       d="m 85.851562,68.62619 1.573094,-0.03933 0.314618,-0.511254 1.573094,0.786548 0.865201,-1.809059 2.516949,0.314618 2.556275,-0.157308 1.022511,-0.196635 -0.196636,-3.775425 2.084348,3.539459 1.887714,1.691076 1.2978,1.33713 2.20233,3.303495 -2.04502,1.651749 -1.730403,1.061836 -1.92704,0.904529 -4.168698,-1.258475 -5.348515,-4.365334 -2.870896,-0.471927 -1.297802,-1.887712 z"
       id="path9608" /><path
       style="fill:#725b2a;stroke:#000000;stroke-width:0.165;stroke-linecap:round"
       d="m 97.846397,59.777542 2.438293,0.865201 1.41579,2.910223 0.0786,2.280984 -0.55058,1.730404 0.47193,1.573093 0.62923,1.730402 0.31462,0.786548 -1.88771,-2.280987 -1.573093,-2.04502 -0.629237,-0.707892 0.865201,-1.494438 -0.235964,-2.595605 z"
       id="path8411" /><path
       style="fill:#e2e2e2;stroke:#000000;stroke-width:0.172902;stroke-linecap:round"
       d="m 91.994188,73.784912 -0.563338,1.602537 -8.365749,-1.859359 0.392756,-0.259446 2.356551,-0.345926 1.88524,-0.691855 1.256826,-0.259444 1.335376,1.210743 z"
       id="path8547"
       sodipodi:nodetypes="ccccccccc" /><path
       style="fill:#f66ced;stroke:#000000;stroke-width:0.165;stroke-linecap:round"
       d="m 92.222589,76.648965 1.612421,1.258475 1.140492,3.460805 -0.4326,3.185515 -1.022511,2.79224 -0.235963,-2.752912 -0.747221,-2.045023 -0.314618,-1.022509 0.196638,-1.573093 -0.03933,-0.707893 -0.825875,-0.511254 -0.235963,1.691073 -0.825874,-0.8652 -0.07865,0.943856 -0.393274,0.629237 -0.550582,-0.943856 -3.578786,-0.196636 -5.269862,-0.03933 -2.713588,1.061836 -0.904527,1.415784 -1.612422,3.81475 -1.848384,-1.809054 -1.691076,-1.533766 0.589911,-3.146189 1.061839,-5.151879 0.314619,-0.668565 2.005692,-2.359639 5.230535,2.438294 7.747484,1.573094 2.752913,0.511254 z"
       id="path8435"
       sodipodi:nodetypes="ccccccccccccccccccccccccccccccc"
       inkscape:label="path8435" /><path
       style="fill:#dd0ecf;stroke:#000000;stroke-width:0.165;stroke-linecap:round"
       d="m 83.491921,73.699417 5.427173,1.179819 2.595602,0.629237 0.707893,0.707893 0.117983,0.353947 -3.106859,-0.550585 -4.326007,-0.550582 -3.618116,-0.629238 -3.028204,-0.943856 -1.848384,-1.297799 -0.865201,-1.022512 0.825873,-0.786548 0.235966,-0.196635 0.825873,1.101164 1.533766,1.297802 z"
       id="path8433" /><path
       style="fill:#e2e2e2;stroke:#000000;stroke-width:0.165;stroke-linecap:round"
       d="m 73.266815,75.351165 -1.219147,1.455111 -0.314619,1.691074 -0.432599,1.887712 -0.471929,0.275291 -0.471927,0.550584 -1.297802,0.157308 -1.022512,0.550582 -1.258474,2.870896 -0.865201,3.696769 -0.58991,1.730404 -0.275291,1.966365 -0.196635,0.904528 -0.157311,1.101167 0.786548,0.983184 1.415783,0.157308 1.573093,-1.022512 1.101164,-1.848384 0.235966,-1.101164 -0.157311,-0.825873 0.275291,-0.707893 0.550583,-1.612421 -0.471927,-2.123675 -0.03933,-1.455111 0.865201,-0.314618 1.573093,-2.045023 0.07866,-2.63493 z"
       id="path8437" /><path
       style="fill:#e2e2e2;stroke:#000000;stroke-width:0.165;stroke-linecap:round"
       d="m 94.306936,84.160486 -0.786545,2.949551 -0.03933,1.966365 0.825873,3.185514 0.983184,3.85408 0.865201,-1.376458 0.511257,-2.713585 -0.275291,-2.595605 -1.179819,-3.775424 z"
       id="path8441"
       inkscape:label="path8441" /><path
       style="fill:#e2e2e2;stroke:#000000;stroke-width:0.165;stroke-linecap:round"
       d="m 80.974971,105.94783 0.393274,4.24735 -1.258474,2.20233 0.983183,2.24166 2.163004,0.70789 0.8652,-0.62924 -0.07865,-2.20233 -0.589913,-1.61242 -0.196635,-1.45511 2.005695,0.78655 0.747217,4.05071 1.219147,2.35964 0.235966,0.66857 -0.393274,0.35394 -0.353946,1.14049 -0.432602,1.02251 -1.061836,2.28099 -0.196638,0.8652 0.589909,2.00569 0.589913,1.76974 1.140491,-0.58991 0.550582,-1.88772 1.494439,-4.67995 0.825875,-0.47193 1.258475,-1.33713 1.2978,-0.94385 1.179822,-2.39897 0.393271,-2.5956 -0.275291,-3.22484 -6.410354,-0.94386 -3.696769,-0.58991 z"
       id="path8443" /><path
       style="fill:#e2d7b0;stroke:#000000;stroke-width:0.165;stroke-linecap:round"
       d="m 105.16128,90.216896 2.51695,4.168696 0.0786,3.618113 -1.41578,4.561975 -2.04502,2.20233 -2.5956,1.7304 -0.78655,0.94386 -6.528338,1.33713 -11.247617,-1.73041 -4.326007,-2.35964 -4.326006,-6.056407 -2.359639,-2.438294 -1.887712,-3.067532 -0.629237,-2.516949 v -4.168696 l 1.573093,0.865201 0.314619,2.359639 0.943856,2.516949 2.359639,3.067532 1.101166,1.179822 1.337131,-0.393274 -1.337131,0.393274 -3.38215,-4.090043 -1.179819,-3.146187 -0.314619,-1.966368 v -1.258474 l -0.550584,-1.494438 0.314618,-0.314619 0.07866,-0.157308 0.01966,0.01966 0.2163,0.07865 0.334282,1.140495 0.452266,0.806209 0.806209,1.219147 0.904528,1.82872 1.435449,1.671413 1.55343,1.474774 0.275291,0.314619 1.494438,1.061839 -0.74722,-1.140494 -0.70789,0.07865 -1.828721,-1.769729 -1.455113,-1.71074 -1.002847,-2.005693 -1.081501,-1.632085 -0.412938,-1.278138 -0.393271,-0.629238 0.05899,-0.806209 0.825876,-0.353946 0.8652,0.03933 0.511255,0.353947 0.74722,0.688226 5.486162,7.196902 1.317466,1.120831 5.330653,3.668863 2.447158,-1.056727 0.667406,-0.834258 1.668518,-0.667406 0.111233,-0.723025 -0.945491,-2.335924 0.333703,-6.729687 -0.222469,-2.05784 0.500554,-0.444936 0.111236,-1.223579 1.279195,-0.500555 0.61179,0.444937 -0.166851,2.558394 1.001109,2.447158 0.278088,4.727466 1.835369,7.174624 1.112343,-2.169073 0.166854,-2.614009 2.16907,-1.05673 2.558398,-2.391539 2.44716,0.611788 z"
       id="path8447" /><path
       style="fill:#e2e2e2;stroke:#000000;stroke-width:0.165;stroke-linecap:round"
       d="m 76.255694,83.491921 0.865201,-2.280984 2.595604,-1.219147 4.601298,-0.589909 3.146186,0.275291 2.241656,0.550582 0.393274,1.101164 -0.07865,5.4665 -0.235963,2.949549 0.589909,1.612421 0.314619,1.022511 -0.314619,0.58991 -1.258474,0.58991 -1.219148,1.061836 -2.163003,0.904529 -3.185514,0.707892 -1.573094,0.353947 -0.511254,0.15731 -0.275291,1.022509 -0.196636,0.471929 0.235964,2.910219 -0.511255,2.20233 -0.353946,0.55059 -0.904528,1.61242 -1.061839,0.78654 -1.17982,0.4326 -1.887712,-0.23596 -0.904528,-0.4326 -0.196636,-1.88771 0.904528,-3.38215 0.943856,-3.185516 0.943854,-3.067532 0.825876,-1.966367 2.320311,-2.005695 3.618116,-1.887709 -3.578787,1.809055 -0.943858,-1.219146 -2.713585,-3.618115 z"
       id="path8439"
       sodipodi:nodetypes="ccccccccccccccccccccccccccccccccccccccc" /><path
       style="fill:#e2e2e2;stroke:#000000;stroke-width:0.165;stroke-linecap:round"
       d="m 83.255958,71.379103 4.286678,1.101167 1.533766,-0.314619 1.730404,1.376455 1.337127,0.314619 -3.932732,-2.713585 -2.674257,-0.511255 -0.196639,-0.235963 -2.674257,0.11798 z"
       id="path8545" /><path
       style="fill:#2c2c2c;stroke-width:0.165;stroke-linecap:round"
       d="m 98.711598,72.126323 0.707893,2.280986 1.691069,0.511255 0.82588,-0.629238 -0.0393,-0.983183 -1.2978,-0.393272 z"
       id="path11148" /><path
       style="fill:#856a31;stroke:#000000;stroke-width:0.165;stroke-linecap:round"
       d="m 74.092691,59.93485 1.573093,5.269862 1.966365,2.595605 4.483317,2.988876 h 2.988876 l 0.786548,-1.258475 -0.235966,-5.820444 -0.629237,-1.966365 -0.943856,-2.595604 0.786548,-1.258475 1.651748,-1.415783 -4.247353,-1.179822 -3.696769,1.494441 -2.988876,2.04502 z"
       id="path8407" /><path
       style="fill:#cb97c7;stroke:#000000;stroke-width:0.165;stroke-linecap:round"
       d="m 77.369604,67.574305 -1.014195,2.166208 0.56885,1.205991 1.494438,2.04502 3.38215,0.550582 5.519461,0.732568 0.143675,-1.755077 -3.854079,-1.101166 -1.966368,0.15731 -2.20233,-0.629237 -1.022509,-1.022512 -1.022511,-1.809056 z"
       id="path8413"
       sodipodi:nodetypes="ccccccccccccc" /><path
       style="fill:#727272;stroke:#000000;stroke-width:0.165;stroke-linecap:round"
       d="m 75.547801,73.424126 -0.334282,-0.629238 -0.58991,-0.09832 -0.452266,0.196638 -0.334279,0.58991 0.176971,0.884865 0.530919,1.573093 0.235966,0.530918 1.789393,-0.412937 0.255627,-0.117981 0.37361,-0.806212 -0.07865,-0.845537 -0.432602,-0.471926 -0.609574,-0.09832 -0.373607,0.07865 z"
       id="path8431" /><path
       style="fill:#727272;stroke:#000000;stroke-width:0.165;stroke-linecap:round"
       d="m 78.104078,69.609374 3.22484,0.707893 1.887712,1.022511 -0.157308,1.337127 -0.629237,1.415786 -1.573094,0.314618 -3.38215,-1.33713 -0.157311,-0.943856 0.157311,-1.022511 z"
       id="path8415" /><path
       style="fill:#cb97c7;stroke:#000000;stroke-width:0.165;stroke-linecap:round"
       d="m 78.458025,70.199284 -0.314619,1.101166 -0.157311,1.297803 1.396122,0.648898 2.104011,0.570249 0.550582,-0.609574 0.334283,-1.750068 -0.845537,-0.471926 z"
       id="path8417" /><path
       style="fill:#4d4d4d;stroke:#000000;stroke-width:0.165;stroke-linecap:round"
       d="m 85.104342,72.716233 -0.157308,0.157311 0.01966,0.216299 0.314618,0.01966 0.235964,-0.09832 -0.314619,-0.334283 z"
       id="path8423" /><path
       style="fill:#727272;stroke:#000000;stroke-width:0.165;stroke-linecap:round"
       d="m 82.017147,72.26397 1.022511,0.393271 -0.157311,0.412938 -1.061836,-0.255627 z"
       id="path8419" /><path
       style="fill:#4d4d4d;stroke:#000000;stroke-width:0.165;stroke-linecap:round"
       d="m 77.101231,70.317267 -0.07866,0.255627 0.176975,0.235963 0.235963,-0.176972 0.03933,-0.294955 -0.353946,-0.314618 z"
       id="path8425" /><path
       style="fill:#727272;stroke:#000000;stroke-width:0.165;stroke-linecap:round"
       d="m 78.752979,68.645854 -0.924192,-0.393271 -1.317466,-0.01966 -1.140492,0.58991 -0.334282,0.825873 0.235963,1.140492 0.37361,0.334282 0.80621,0.393274 0.806209,-0.01966 -0.275291,-0.471926 -0.845537,-0.25563 -0.393274,-0.550582 0.03933,-0.452263 0.294955,-0.511257 0.865204,-0.432599 0.845537,0.01966 0.766881,0.294954 0.471929,0.353947 0.2163,-0.570249 z"
       id="path8427" /><path
       style="stroke:#000000;stroke-width:0.165;stroke-linecap:round;fill:#727272"
       d="m 76.432666,70.730204 -0.387105,1.333753 -0.209555,0.791319 -0.456459,0.785969 0.229215,0.573041 0.402815,-0.305895 0.250857,-0.874744 0.393274,-1.1697 0.09157,-1.114079 z"
       id="path8429"
       sodipodi:nodetypes="cccccccccc" /><path
       style="fill:#4d4d4d;stroke:#000000;stroke-width:0.165;stroke-linecap:round"
       d="m 79.146251,71.693722 -0.334283,0.07866 v 0.353946 l 0.196639,0.09832 0.353946,-0.117983 v -0.235963 z"
       id="path8421" /><path
       style="fill:#000000;stroke-width:0.165;stroke-linecap:round"
       d="m 103.70617,73.188162 -1.21915,-1.573093 -2.163,-0.865201 -1.17982,0.314616 -0.432602,1.022512 0.511257,0.511257 0.157308,0.825873 0.629237,0.511254 0.23596,0.157311 0.74722,-0.235966 0.0787,0.471929 -0.39327,0.353946 -0.55059,-0.275291 -0.629234,-0.550584 -0.314619,-0.117981 0.58991,1.651749 0.904533,0.471927 1.02251,-0.196636 0.62923,-0.432602 1.10117,-1.297802 z"
       id="path9988" /><path
       style="fill:#6f5829;stroke-width:0.165;stroke-linecap:round"
       d="m 88.761783,62.058528 2.870896,-0.471929 1.219147,0.550582 0.629237,0.07866 -0.707892,-2.084348 -1.927037,-0.432601 -2.438297,0.511257 -0.432599,0.70789 z"
       id="path11582" /><path
       style="fill:#6f5829;stroke-width:0.165;stroke-linecap:round"
       d="m 98.396979,63.395655 1.061839,-0.353946 0.747222,0.314619 -0.353948,-1.2978 -1.101166,-0.786548 -0.943856,-0.314619 -0.786546,0.747221 z"
       id="path11584" /><path
       style="fill:none;stroke:#000000;stroke-width:0.165;stroke-linecap:round"
       d="m 92.01873,74.040455 1.71023,1.529474"
       id="path11640"
       sodipodi:nodetypes="cc" /><path
       style="fill:none;stroke:#000000;stroke-width:0.165;stroke-linecap:round"
       d="M 99.734109,76.059056 97.099177,75.86242 94.464247,74.957891 93.048462,73.778072 91.593351,72.362287 90.492187,71.575741"
       id="path11642" /><path
       style="fill:none;stroke:#000000;stroke-width:0.165;stroke-linecap:round"
       d="M 32.956304,60.957361 25.641419,65.12606 20.686176,69.452066 13.135328,85.733579 6.8992507,108.55653"
       id="path11644"
       inkscape:label="path11644"
       sodipodi:nodetypes="ccccc" /><path
       style="fill:#41ae61;stroke:#000000;stroke-width:0.165;stroke-linecap:round"
       d="m 35.787869,54.271716 -4.011387,9.438558 0.314618,9.202597 4.955244,-0.15731 3.932735,0.471926 -0.157311,4.247354 13.528601,4.483314 0.550585,-1.651746 -14.47246,-14.236493 z"
       id="path8403" /><rect
       style="opacity:0;fill:#41ae61;stroke-width:0.165;stroke-linecap:round"
       id="rect11867"
       width="4.4493794"
       height="5.6729589"
       x="69.521553"
       y="66.184517"
       ry="2.2246897" /><rect
       style="opacity:0;fill:#e800e8;stroke-width:0.165;stroke-linecap:round"
       id="rect14471"
       width="8.0088835"
       height="12.124559"
       x="114.79399"
       y="91.657219"
       ry="1.0567274" /><path
       id="rect14476"
       style="fill:#41ae61;stroke-width:0.165;stroke-linecap:round"
       d="m 69.952802,66.270222 4.169173,-2.138424 c 0.520903,-0.267178 -2.203944,2.779874 -1.93215,3.298385 l 2.641883,5.099751 -0.984615,0.388777 -4.174498,1.22419 c -0.56177,0.164741 -1.122425,-0.474998 -1.056727,-1.056727 l 1.002846,-6.521192 z"
       sodipodi:nodetypes="cssccsscc" /></g></svg>
