<?xml version="1.0" encoding="UTF-8" standalone="no"?>
<!-- Created with Inkscape (http://www.inkscape.org/) -->

<svg
   width="500"
   height="500"
   viewBox="0 0 132.29166 132.29167"
   version="1.1"
   id="svg4616"
   inkscape:version="1.2 (dc2aedaf03, 2022-05-15)"
   sodipodi:docname="favicon.svg"
   xmlns:inkscape="http://www.inkscape.org/namespaces/inkscape"
   xmlns:sodipodi="http://sodipodi.sourceforge.net/DTD/sodipodi-0.dtd"
   xmlns="http://www.w3.org/2000/svg"
   xmlns:svg="http://www.w3.org/2000/svg">
  <sodipodi:namedview
     id="namedview4618"
     pagecolor="#ffffff"
     bordercolor="#000000"
     borderopacity="0.25"
     inkscape:showpageshadow="2"
     inkscape:pageopacity="0.0"
     inkscape:pagecheckerboard="0"
     inkscape:deskcolor="#d1d1d1"
     inkscape:document-units="mm"
     showgrid="false"
     inkscape:zoom="1.811"
     inkscape:cx="349.53065"
     inkscape:cy="225.0138"
     inkscape:window-width="3840"
     inkscape:window-height="2054"
     inkscape:window-x="-11"
     inkscape:window-y="-11"
     inkscape:window-maximized="1"
     inkscape:current-layer="layer1" />
  <defs
     id="defs4613" />
  <g
     inkscape:label="Layer 1"
     inkscape:groupmode="layer"
     id="layer1">
    <circle
       style="fill:#cadff5;fill-opacity:1;stroke:none;stroke-width:2.56962;stroke-linecap:round;stroke-linejoin:round;stroke-miterlimit:6.7"
       id="path6705"
       cx="66.145836"
       cy="66.145836"
       r="66.145836" />
    <path
       style="fill:#f0dea4;fill-opacity:1;stroke:#000000;stroke-width:0.392898;stroke-linecap:round"
       d="m 84.033005,26.083192 -9.98818,-14.186819 -6.457783,-1.890083 -11.3405,1.417565 -10.55296,5.197726 -8.977897,3.62266 -7.560339,6.615291 -4.567697,7.087815 -0.94504,4.09518 1.89008,14.805653"
       id="path6281"
       sodipodi:nodetypes="cccccccccc" />
    <path
       style="fill:#f0dea4;fill-opacity:1;stroke:#000000;stroke-width:0.392898;stroke-linecap:round"
       d="m 98.930931,52.84818 6.142769,-7.875348 3.15014,-8.662884 -2.2051,-6.930302 -6.300283,-3.307647 -13.860609,-0.47252 -14.963159,3.150136 -17.955792,6.930306 -14.805649,8.032854 -12.443053,9.135405 -8.977898,9.292909 -4.252686,7.71784 1.260069,8.190361 6.300263,4.252686 8.347868,0.945042 5.197728,-0.787534"
       id="path6279" />
    <path
       id="rect8941"
       style="fill:#f8f0d6;stroke-width:0.392898;stroke-linecap:round"
       d="m 43.724736,69.937687 -4.255144,-1.244535 -5.701118,-1.013923 -2.231923,0.594939 -1.436165,1.899779 0.263054,5.578282 1.808429,4.489809 1.944944,2.768724 14.569395,10.552966 -2.347968,-14.083411 z"
       sodipodi:nodetypes="ccccccccccc" />
    <path
       id="rect7118"
       style="fill:#5e5635;fill-opacity:1;stroke-width:0.392898;stroke-linecap:round"
       d="m 101.4072,83.315973 -47.213942,-35.248305 -3.260031,1.952341 -10.468568,7.287388 -6.198279,6.421499 -2.946196,4.647099 2.795914,-0.795595 4.198456,0.681362 5.509525,1.809412 2.663978,9.586217 4.256122,21.957089 2.656658,5.02547 9.142551,8.50291 10.308864,3.57157 14.124914,-0.40458 8.155171,-1.41034 6.135873,-3.33724 2.1759,-5.90018 z"
       sodipodi:nodetypes="ccccccccccccccccccc" />
    <path
       id="rect6389"
       style="fill:#f9f1db;fill-opacity:1;stroke-width:0.392898;stroke-linecap:round"
       d="m 98.969147,52.468743 -7.304722,-12.96128 -3.449268,-1.331521 -5.59421,0.231811 -13.091013,2.316321 -15.423248,7.529377 -5.115016,10.265798 7.845828,25.101672 12.923532,6.267386 6.470609,0.845069 0.774448,-2.670075 1.898527,-1.760729 4.309146,-3.07499 5.048485,-0.923188 3.98697,0.181782 5.097954,-1.512812 2.047465,0.406901 2.007066,1.86276 -0.27601,-12.066827 -3.186985,-8.626232 z"
       sodipodi:nodetypes="ccccccccccccccccccccc" />
    <path
       id="rect8996"
       style="fill:#393939;fill-opacity:1;stroke-width:0.392898;stroke-linecap:round"
       d="m 104.48939,56.290267 -4.29947,-0.226 -5.041005,0.886046 -4.799271,2.50358 -10.004656,-1.40709 -8.111489,1.3379 -4.132318,2.352217 -31.58425,5.987775 3.506403,1.189179 26.402388,-4.238014 2.379942,1.207343 1.313297,5.27738 1.219397,4.357822 1.756214,1.420598 5.674187,-0.07858 6.615234,-1.999136 1.834073,-2.064405 1.40471,-4.463304 0.85616,-4.955468 1.093311,-0.670736 3.215694,3.314926 -0.842282,-3.802483 0.548761,-2.209045 2.419253,-1.802574 5.477317,-1.022794 1.39783,0.0019 1.60673,0.237883 0.43481,1.421266 0.11134,5.004179 -0.55265,6.008322 -1.56966,0.618383 -3.345535,0.650088 -2.715294,0.267791 0.529403,1.272003 2.426851,-0.07904 2.697575,-0.793322 3.31317,-1.573925 0.51265,-6.411847 -0.53166,-5.6409 z"
       sodipodi:nodetypes="cccccccccccccccccccccccccccccccccccccccc" />
    <path
       style="fill:#ffffff;stroke:#000000;stroke-width:0.392898;stroke-linecap:round"
       d="m 93.418184,65.606242 -0.31502,-3.622661 0.31502,-2.047589 2.835121,-1.890083 4.410205,-0.945042 3.15013,0.157506 0.78754,0.315016 0.27563,1.299429 0.19688,4.64645 -0.47251,5.709633 -0.15753,0.630028 -1.89009,0.787536 -2.677616,0.630027 -3.150141,0.157524"
       id="path6289"
       sodipodi:nodetypes="cccccccccccccc" />
    <path
       style="fill:none;stroke:#000000;stroke-width:0.392898;stroke-linecap:round"
       d="m 45.37856,89.074776 -2.20509,1.260056 -3.780172,-0.94504 -3.307648,-3.62266 -3.937673,-5.827757 -1.732579,-4.095182 -0.315012,-5.512744 1.732578,-2.047588 1.890086,-0.63003 4.567699,0.63003 5.512748,1.732577 2.520111,8.977894 4.252686,22.523488 2.835123,4.72521 9.135403,8.82038 10.080446,3.46516 14.648145,-0.31502 7.875348,-1.41756 6.142771,-3.15014 2.2051,-5.98526 -2.0476,-23.783542 -0.2999,-11.627929 m -0.0151,-1.287639 -3.150135,-8.347872 0.447375,-4.846634 m 0.135395,-1.559591 0.36227,-3.831725 -7.245327,-12.75806 -3.465157,-1.417563 -5.512743,0.157489 -13.073074,2.362605 -10.552968,4.410195 -8.190358,4.882715 -10.552969,7.560333 -5.985261,6.142774 -2.99264,4.725208"
       id="path6267"
       sodipodi:nodetypes="cccccccccccccccccccccccccccccccccccc" />
    <path
       style="fill:none;stroke:#000000;stroke-width:0.392898;stroke-linecap:round"
       d="m 90.740567,62.771117 3.150132,3.307647 5.040232,10.080442 0.315011,2.205098 -1.102546,1.890085 -1.732576,1.260054 -4.095182,0.945041"
       id="path6269" />
    <path
       style="fill:none;stroke:#000000;stroke-width:0.392898;stroke-linecap:round"
       d="m 86.802891,73.166575 0.630026,1.575068 -2.047591,1.732578 -0.94504,1.890083 0.315012,1.260056 1.260056,1.102549 1.732578,-0.945042 2.677615,-0.315016 2.047596,0.787538 1.575071,0.630028 -1.732576,1.575067"
       id="path6271" />
    <path
       style="fill:none;stroke:#000000;stroke-width:0.392898;stroke-linecap:round"
       d="M 101.29353,83.247018 99.403447,81.671949 97.355861,81.041923"
       id="path6273" />
    <path
       style="fill:none;stroke:#000000;stroke-width:0.392898;stroke-linecap:round"
       d="m 92.315638,82.616992 -3.93768,-0.157525 -5.040219,0.787534 -3.465156,2.362606 -2.677618,2.520112 -0.945042,2.677616 -6.772797,-0.945042 -6.930306,-2.99263 -5.670249,-3.307646 m 0,0 -5.296171,-16.4201 M 50.909354,64.88846 49.001221,58.518414 54.248174,48.024512"
       id="path6275"
       sodipodi:nodetypes="cccccccccccccc" />
    <path
       style="fill:none;stroke:#000000;stroke-width:0.392898;stroke-linecap:round"
       d="m 36.243161,67.653831 31.97391,-5.827756 4.09518,-2.362604 8.190362,-1.417562 5.512741,0.787532 4.725213,0.787538 1.575062,-1.102549 2.677625,-1.575068 4.567698,-0.787536 3.150138,-0.157523 1.73258,0.315013 0.78754,0.787536 0.47251,0.945042 0.55014,5.472267 -0.39261,5.553217 -0.31502,1.260057 -2.83513,1.417562 -2.67761,0.787533 -2.839499,0.157525"
       id="path6283"
       sodipodi:nodetypes="ccccccccccccccccccc" />
    <path
       style="fill:none;stroke:#000000;stroke-width:0.392898;stroke-linecap:round"
       d="m 40.023324,68.913889 26.618677,-4.252689 2.205098,1.260057 2.362601,9.292907 1.890083,1.732578 h 5.670252 l 6.615291,-2.362604 1.732575,-2.04759 1.417562,-4.09518 0.945042,-5.19773 1.102547,-0.630027 0.472525,0.630027"
       id="path6285" />
    <path
       style="fill:#ffffff;stroke:#000000;stroke-width:0.392898;stroke-linecap:round"
       d="m 88.062943,61.668566 -0.157488,4.567704 -1.732578,5.985263 -0.885976,1.397875 -4.469259,1.909772 -5.670251,0.630026 -2.835126,-1.890082 -1.575068,-11.3405 1.575068,-1.732575 3.937675,-1.57507 5.985265,-0.472523 3.780166,0.630028 z"
       id="path6287"
       sodipodi:nodetypes="ccccccccccccc" />
    <path
       style="fill:#f8f0d6;stroke:#000000;stroke-width:0.392898;stroke-linecap:round"
       d="m 96.598989,85.934902 -6.682451,2.004736 -8.464442,0.222739 -0.890994,3.563981 1.781992,2.895726 4.900461,0.222738 1.559245,-3.563974 5.345966,-1.336491 1.113731,2.672983 2.895735,-1.113744 -0.02493,-3.417625 z"
       id="path6299"
       sodipodi:nodetypes="cccccccccccc" />
  </g>
</svg>
