<?xml version="1.0" encoding="UTF-8" standalone="no"?>
<!-- Created with Inkscape (http://www.inkscape.org/) -->

<svg
   width="500"
   height="500"
   viewBox="0 0 132.29166 132.29167"
   version="1.1"
   id="svg13650"
   xml:space="preserve"
   inkscape:version="1.2 (dc2aedaf03, 2022-05-15)"
   sodipodi:docname="me-2.svg"
   xmlns:inkscape="http://www.inkscape.org/namespaces/inkscape"
   xmlns:sodipodi="http://sodipodi.sourceforge.net/DTD/sodipodi-0.dtd"
   xmlns="http://www.w3.org/2000/svg"
   xmlns:svg="http://www.w3.org/2000/svg"><sodipodi:namedview
     id="namedview13652"
     pagecolor="#ffffff"
     bordercolor="#000000"
     borderopacity="0.25"
     inkscape:showpageshadow="2"
     inkscape:pageopacity="0.0"
     inkscape:pagecheckerboard="0"
     inkscape:deskcolor="#d1d1d1"
     inkscape:document-units="mm"
     showgrid="false"
     inkscape:zoom="2.8284271"
     inkscape:cx="351.78562"
     inkscape:cy="262.51339"
     inkscape:window-width="3840"
     inkscape:window-height="2054"
     inkscape:window-x="-11"
     inkscape:window-y="-11"
     inkscape:window-maximized="1"
     inkscape:current-layer="layer1" /><defs
     id="defs13647" /><g
     inkscape:groupmode="layer"
     id="layer2"
     inkscape:label="reference" /><g
     inkscape:label="Layer 1"
     inkscape:groupmode="layer"
     id="layer1"
     style="opacity:1"><g
       id="g36091"><circle
         style="fill:#ffcbcb;stroke:none;stroke-width:0.207366;stroke-linecap:round;stroke-linejoin:round;stroke-miterlimit:6.7;opacity:1;fill-opacity:1"
         id="path19047"
         cx="66.145836"
         cy="66.145828"
         r="66.042152"
         inkscape:label="path19047" /><path
         id="rect34801"
         style="opacity:1;fill:#f9f1db;stroke-width:0.171;stroke-linecap:round;stroke-linejoin:round;stroke-miterlimit:6.7"
         d="m 44.11927,66.774216 8.896613,-2.315104 1.471745,17.214457 -11.079426,-6.58151 z"
         sodipodi:nodetypes="ccccc" /><path
         id="rect34193"
         style="opacity:1;fill:#769375;stroke-width:0.171;stroke-linecap:round;stroke-linejoin:round;stroke-miterlimit:6.7"
         d="m 84.640079,42.539288 4.776607,-2.250915 3.939385,-0.949997 3.653131,0.973889 1.031595,1.827679 -0.286972,2.416389 -2.363239,2.032151 -3.075802,0.636827 -3.892141,-0.168205 -2.911433,-0.536342 z"
         sodipodi:nodetypes="ccccccccccc" /><path
         id="rect32627"
         style="opacity:1;fill:#464646;stroke-width:0.171;stroke-linecap:round;stroke-linejoin:round;stroke-miterlimit:6.7"
         d="m 44.964143,29.724704 c 3.688148,-1.099156 7.254389,-3.011031 11.292227,-1.778921 l -1.520695,0.943409 -4.106254,2.672716 z"
         sodipodi:nodetypes="ccccc" /><path
         style="opacity:1;fill:#464646;fill-opacity:1;stroke:#000000;stroke-width:0.171;stroke-linecap:round;stroke-linejoin:round;stroke-miterlimit:6.7;stroke-opacity:1"
         d="m 44.896484,29.749088 3.786849,-2.877344 3.588411,-1.719791 c 0,0 2.530078,-0.694531 2.596224,-0.711068 0.06615,-0.01654 4.183724,-0.777213 4.183724,-0.777213 l 3.489193,-0.512631 2.182812,0.28112 2.38125,0.876432 1.488281,0.859896 0.810287,0.694532"
         id="path25851" /><path
         id="rect34134"
         style="opacity:1;fill:#f9f1db;stroke-width:0.171;stroke-linecap:round;stroke-linejoin:round;stroke-miterlimit:6.7"
         d="m 56.617706,44.737579 27.993144,-2.26845 0.374177,2.26845 0.07016,21.421652 -1.604824,9.144287 -19.208789,-4.794475 -7.623866,-3.88209 z"
         sodipodi:nodetypes="cccccccc" /><path
         style="opacity:1;fill:#f9f1db;fill-opacity:1;stroke:#000000;stroke-width:0.171;stroke-linecap:round;stroke-linejoin:round;stroke-miterlimit:6.7;stroke-opacity:1"
         d="m 84.60052,42.564843 1.389062,6.11849 0.09922,3.356901 -0.363802,1.769401 -0.744141,3.786849 -0.132291,1.322917 v 1.719792 l 0.165364,5.457031 -0.396875,1.951302"
         id="path25863" /><path
         id="rect26650"
         style="opacity:1;fill:#9ec59d;stroke-width:0.171;stroke-linecap:round;stroke-linejoin:round;stroke-miterlimit:6.7"
         d="M 53.863025,34.704948 H 75.3217 c 0.79301,0 2.710058,1.425155 3.489401,1.571744 l 18.100829,3.404617 c 0.177918,0.03346 -1.175701,-1.030104 -3.298125,-0.858898 -2.794516,0.22542 -7.194011,2.338664 -7.194011,2.338664 l -5.658336,2.570985 -3.946806,2.067105 -6.772267,1.273295 -8.451181,-1.116681 -5.082263,-1.223063 -5.308792,2.872237 -1.60353,-2.337756 -1.857909,-0.738732 -1.205124,-1.399983 -2.580053,-0.07221 -1.041546,-1.675504 -1.587534,-1.111137 -0.0059,-0.349643 0.513136,-1.541244 1.025261,-1.647053 c 0,0 1.234413,0.201263 2.707617,-0.08576 3.080254,-0.600122 7.761975,-1.940979 8.298418,-1.940979 z"
         sodipodi:nodetypes="sssssccccccccccccccccsss" /><rect
         style="opacity:1;fill:#3d3d3d;fill-opacity:1;stroke:none;stroke-width:0.171;stroke-linecap:round;stroke-linejoin:round;stroke-miterlimit:6.7;stroke-opacity:1"
         id="rect28157"
         width="4.6467447"
         height="3.2742188"
         x="44.516148"
         y="65.203255"
         ry="0"
         rx="0" /><path
         style="opacity:1;fill:#3d3d3d;fill-opacity:1;stroke:#000000;stroke-width:0.171;stroke-linecap:round;stroke-linejoin:round;stroke-miterlimit:6.7;stroke-opacity:1"
         d="m 44.012609,43.077166 2.455539,0.04677 1.613639,0.678196 2.619242,2.478926 1.590252,4.232881 0.748355,6.361014 0.02339,4.373198 -0.584653,3.648228 -0.912056,2.806332 -1.309621,1.028986 -2.666013,-0.257246"
         id="path25837" /><path
         style="opacity:1;fill:#5f5f5f;fill-opacity:1;stroke:#000000;stroke-width:0.171;stroke-linecap:round;stroke-linejoin:round;stroke-miterlimit:6.7;stroke-opacity:1"
         d="m 47.006028,66.743881 1.309621,-1.917658 0.795126,-4.256267 -0.07016,-2.642627 -0.724966,-5.940065 -1.333008,-4.18611 -1.753957,-2.104747 -3.671615,-1.028989 -2.73617,0.514496 -2.104747,1.637024 -1.473324,3.040192 -0.327406,4.934464 0.561266,4.279654 1.80073,5.238482 2.361993,2.876487 2.642627,1.239462 2.525697,0.140316 z"
         id="path25823" /><path
         style="opacity:1;fill:#5f5f5f;fill-opacity:1;stroke:#000000;stroke-width:0.171;stroke-linecap:round;stroke-linejoin:round;stroke-miterlimit:6.7;stroke-opacity:1"
         d="m 45.509317,55.097613 1.216078,2.6894 0.678196,0.491106 1.379778,-0.35079 1.309621,-0.865285 -0.187089,-2.993419"
         id="path25827" /><path
         id="rect31893"
         style="opacity:1;fill:#5f5f5f;stroke-width:0.171;stroke-linecap:round;stroke-linejoin:round;stroke-miterlimit:6.7"
         d="m 45.84842,31.781688 4.583672,-0.315712 0.07016,0.222168 -0.99847,0.747503 -2.558886,3.644968 -1.435573,0.623843 -3.032202,0.117481 -1.060337,-2.148179 z"
         sodipodi:nodetypes="ccccccccc" /><path
         style="opacity:1;fill:#9ec59d;fill-opacity:1;stroke:#000000;stroke-width:0.171;stroke-linecap:round;stroke-linejoin:round;stroke-miterlimit:6.7;stroke-opacity:1"
         d="m 83.798183,37.248183 -3.022652,-4.063329 -3.133735,-2.75956 -4.373198,-2.899875 -3.835318,-1.660411 -4.677216,-0.350791 -6.150539,1.169303 -5.659432,3.133735 -3.507912,2.666013 -2.525699,3.578072 -1.309619,0.631425 -2.899876,0.04677"
         id="path24976"
         sodipodi:nodetypes="cccccccccccc" /><path
         style="opacity:1;fill:#9ec59d;fill-opacity:1;stroke:#000000;stroke-width:0.171;stroke-linecap:round;stroke-linejoin:round;stroke-miterlimit:6.7;stroke-opacity:1"
         d="m 56.664481,44.690805 3.811931,-1.566868 5.975144,-2.315221 4.326424,-1.543481 4.735682,-1.485016 3.110349,-0.654812 3.122044,0.02339 12.593404,0.947137"
         id="path24972" /><path
         style="opacity:1;fill:#9ec59d;fill-opacity:1;stroke:#000000;stroke-width:0.171;stroke-linecap:round;stroke-linejoin:round;stroke-miterlimit:6.7;stroke-opacity:1"
         d="m 51.34584,47.537171 c 1.76792,-0.943206 3.535788,-1.886509 5.30366,-2.829806 l 2.224688,0.943269 5.179079,1.121243 5.428244,0.551722 4.698542,-0.444936 4.004443,-1.263624 5.606219,-2.72302 5.677408,-2.616237 3.862062,-0.961065 3.737477,0.943269 0.996662,1.85094 -0.28476,2.491653 -2.384867,1.957729 -3.114567,0.711898 -3.933251,-0.231367 -2.776413,-0.427138 0.07119,0.320355 4.200216,0.622911 4.235809,-0.07119 2.349273,-0.836483 1.726358,-1.477195 0.854282,-2.206892 -0.249166,-2.046714 -1.423803,-1.833144 -3.007778,-0.92547 -2.313678,0.177974 -3.719681,1.352611 -5.268066,2.634033 -5.054494,2.72302 -3.132365,1.085649 -3.933251,0.605116 -3.951049,-0.142381 -5.606217,-0.907674 -4.70077,-0.983312 z"
         id="path24321"
         sodipodi:nodetypes="cccccccccccccccccccccccccccccccccccc" /><path
         style="opacity:1;fill:#5f5f5f;fill-opacity:1;stroke:#000000;stroke-width:0.171;stroke-linecap:round;stroke-linejoin:round;stroke-miterlimit:6.7;stroke-opacity:1"
         d="m 45.509317,55.05084 1.870887,0.07016 2.502313,-1.028986 -0.163703,-0.187089 -1.964431,-0.210474 -1.426551,0.35079 z"
         id="path25825" /><path
         style="opacity:1;fill:#f9f1db;fill-opacity:1;stroke:#000000;stroke-width:0.171;stroke-linecap:round;stroke-linejoin:round;stroke-miterlimit:6.7;stroke-opacity:1"
         d="m 82.178696,55.097613 1.192691,1.496708 c 0,0 0.53788,1.894274 0.65481,1.894274 0.11693,0 0.912058,2.712786 0.912058,2.712786 l 0.561266,1.870885 0.374176,1.520097 -0.397563,1.216075 -0.865285,0.467723 -1.707184,0.397563 -0.491106,-0.140317 -0.30402,-0.865285 -1.707184,-0.795126 -1.403165,-0.163703 -1.216078,0.35079 -0.654809,0.09355 -0.467723,-0.678198 -0.327403,-0.748353 0.491106,-1.216078 0.608039,-0.678196"
         id="path25845" /><path
         style="opacity:1;fill:#393939;fill-opacity:1;stroke:#000000;stroke-width:0.171;stroke-linecap:round;stroke-linejoin:round;stroke-miterlimit:6.7;stroke-opacity:1"
         d="m 52.338054,50.677643 16.697663,1.052372 4.373198,-1.005599 3.180508,-0.116933 3.297436,0.724969 1.707185,1.099145 1.426551,0.654812 0.09355,-0.257246 1.800728,-0.537882 2.50231,-0.374176 1.543481,0.233859 0.888672,0.561269 0.678196,1.075759 -1.262849,5.051393 -1.169304,2.361996 -1.122532,0.608037 -1.216076,0.140316 -0.514492,-0.02339 -2.478927,-1.870885 -0.257246,-4.887693 -0.374176,-0.07016 -0.327406,0.631422 -1.777344,4.045794 -0.88867,1.169303 -1.005601,0.748355 -1.824115,0.397563 -2.970032,-0.11693 -2.22168,-0.678196 -0.724966,-0.748355 -0.257249,-1.028989 V 56.92172 l 0.187089,-1.964431 -0.07016,-1.122532 -1.005601,-0.841899 -16.861367,-1.473324 z"
         id="path25839" /><path
         style="opacity:1;fill:#ffffff;fill-opacity:1;stroke:#000000;stroke-width:0.171;stroke-linecap:round;stroke-linejoin:round;stroke-miterlimit:6.7;stroke-opacity:1"
         d="m 72.169453,52.197738 -0.23386,0.514495 -0.841899,6.735191 0.444334,1.169305 0.935444,0.584652 2.338608,0.42095 3.203895,-0.374179 1.566867,-1.637025 1.660412,-4.18611 0.23386,-1.543482 -0.631423,-1.052372 -1.333008,-0.865285 -3.320823,-0.748356 -2.666015,0.140317 z"
         id="path25841" /><path
         style="opacity:1;fill:#ffffff;fill-opacity:1;stroke:#000000;stroke-width:0.171;stroke-linecap:round;stroke-linejoin:round;stroke-miterlimit:6.7;stroke-opacity:1"
         d="m 83.745564,57.31929 0.11693,-2.642626 0.444336,-1.169305 1.028988,-0.467723 1.379778,-0.420949 1.262849,-0.09354 0.912058,0.280632 0.748355,0.724969 0.257247,0.77174 -0.09355,1.613641 -0.701583,2.970032 -0.982215,1.730571 -1.075759,0.654809 -1.496711,0.140317 -0.491106,-0.18709 z"
         id="path25843" /><path
         style="opacity:1;fill:none;fill-opacity:1;stroke:#000000;stroke-width:0.171;stroke-linecap:round;stroke-linejoin:round;stroke-miterlimit:6.7;stroke-opacity:1"
         d="m 86.026659,52.848416 -1.088404,4.821664 -0.07016,1.356395 -0.04677,1.356391"
         id="path34191"
         sodipodi:nodetypes="cccc" /><path
         style="opacity:1;fill:#5f5f5f;fill-opacity:1;stroke:#000000;stroke-width:0.171;stroke-linecap:round;stroke-linejoin:round;stroke-miterlimit:6.7;stroke-opacity:1"
         d="m 40.981477,36.467024 -0.744857,-0.285149 -0.135709,-0.793855 -0.03307,-0.843359 0.51263,-0.826823 3.158464,-3.522265 3.852994,-1.041797 1.504818,0.264583 0.79375,0.711068 0.744141,1.405599"
         id="path25847"
         sodipodi:nodetypes="cccccccccc" /><path
         style="opacity:1;fill:#5f5f5f;fill-opacity:1;stroke:#000000;stroke-width:0.171;stroke-linecap:round;stroke-linejoin:round;stroke-miterlimit:6.7;stroke-opacity:1"
         d="m 40.018229,34.693489 3.720703,-0.992187 1.504817,0.51263 0.926042,0.727604 0.463021,1.008724 0.01654,0.214974"
         id="path25849" /><path
         style="opacity:1;fill:#cb1515;fill-opacity:1;stroke:#000000;stroke-width:0.171;stroke-linecap:round;stroke-linejoin:round;stroke-miterlimit:6.7;stroke-opacity:1"
         d="m 36.482292,47.590683 0.30402,-1.145918 1.379778,-1.894274 2.128134,-0.982215 1.543481,1.005602 1.309621,2.08136 3.367596,7.787566 0.935445,-0.07016 0.444336,-0.280633 -3.484528,-10.313262 -1.520095,-2.385383 -1.637027,-1.122532 0.04677,-0.444333 0.491109,-1.426551 2.034587,-3.250666 -2.61924,0.912057 -1.30962,2.26845 -0.865285,2.361994 -1.49671,1.099146 -1.19269,1.49671 -0.210475,3.086963 0.304019,1.333007"
         id="path25821" /><path
         style="opacity:1;fill:none;fill-opacity:1;stroke:#000000;stroke-width:0.171;stroke-linecap:round;stroke-linejoin:round;stroke-miterlimit:6.7;stroke-opacity:1"
         d="m 44.152343,68.560155 -0.661458,6.085417 -0.727604,0.529167 -6.085417,5.126302 L 23.8125,90.884375 13.626042,105.43646"
         id="path25855" /><path
         style="opacity:1;fill:#5f5f5f;fill-opacity:1;stroke:#000000;stroke-width:0.171;stroke-linecap:round;stroke-linejoin:round;stroke-miterlimit:6.7;stroke-opacity:1"
         d="m 49.087389,69.713917 -0.491107,0.327406 -0.210476,1.286235 0.608039,0.982215 0.42095,-0.02339 0.257246,-0.257246 v -1.496709 l -0.537879,-0.771742 -1.379779,-0.748355 -1.075761,-3.04019 -0.444336,-0.210476 -0.865285,0.491109 -1.917658,1.660412 2.057976,3.274052 1.356393,0.795127 2.174905,0.327405"
         id="path25829" /><path
         style="opacity:1;fill:#f9f1db;fill-opacity:1;stroke:#000000;stroke-width:0.171;stroke-linecap:round;stroke-linejoin:round;stroke-miterlimit:6.7;stroke-opacity:1"
         d="m 43.484683,74.676578 -1.217496,4.731494 0.959115,3.439583 2.910416,4.001823 6.35,5.920052 5.490104,2.546615 5.688542,1.5875 4.034896,0.06615 1.918229,-1.058333 1.157552,-2.678906 0.496094,-1.951302 -0.06615,-0.330729"
         id="path25857"
         sodipodi:nodetypes="cccccccccccc" /><path
         style="opacity:1;fill:#5e5635;fill-opacity:1;stroke:#000000;stroke-width:0.171;stroke-linecap:round;stroke-linejoin:round;stroke-miterlimit:6.7;stroke-opacity:1"
         d="m 56.666515,44.726848 -0.177974,9.711172 4.795573,10.120313 2.61276,5.027083 3.671094,0.992187 3.472656,-0.529166 2.315104,-2.71198 2.215886,-1.091406 3.538802,0.132292 3.274218,0.264583 2.546615,1.653646 1.521354,5.390885 -0.826823,2.877344 -0.727604,5.78776 -0.992187,4.828646 -2.017448,2.678906 -7.474479,2.050521 -8.235157,-2.282031 -6.217708,-3.40651 L 55.23177,83.343749 52.817447,79.04427 52.519791,72.991926 52.585941,64.19453 51.32917,47.624999 Z"
         id="path25853"
         sodipodi:nodetypes="ccccccccccccccccccccccccc" /><path
         style="opacity:1;fill:#2d2d2d;fill-opacity:1;stroke:#000000;stroke-width:0.171;stroke-linecap:round;stroke-linejoin:round;stroke-miterlimit:6.7;stroke-opacity:1"
         d="m 73.297851,77.448502 0.380338,-0.868164 0.438216,-0.56224 1.182357,-0.479557 1.471745,0.272851 1.810742,0.760677 1.058333,0.859896 0.755681,1.054472 -0.01154,1.682312 -0.669727,1.513086 -0.595312,0.694532 -1.347722,0.338996 -1.860351,0.04134 -1.711523,-0.595312 -0.926042,-0.752409 -0.517402,-0.964931 0.06265,-1.350173"
         id="path25835"
         sodipodi:nodetypes="ccccccccccccccccc" /><path
         style="opacity:1;fill:#323232;fill-opacity:1;stroke:#000000;stroke-width:0.171;stroke-linecap:round;stroke-linejoin:round;stroke-miterlimit:6.7;stroke-opacity:1"
         d="m 69.51927,76.820116 0.06615,-0.190169 3.819922,0.909505 0.198437,0.661458 -0.429948,0.587045 -0.322461,0.264583 -3.472656,-0.694531 -0.347266,-0.37207"
         id="path25833" /><path
         style="opacity:1;fill:#3e3e3e;fill-opacity:1;stroke:#000000;stroke-width:0.171;stroke-linecap:round;stroke-linejoin:round;stroke-miterlimit:6.7;stroke-opacity:1"
         d="m 48.993845,70.602585 -0.280633,0.444336 0.23386,0.53788 20.088645,6.337628 0.491109,-0.46772 -0.04677,-0.608039 z"
         id="path25831" /><path
         style="opacity:1;fill:none;fill-opacity:1;stroke:#000000;stroke-width:0.171;stroke-linecap:round;stroke-linejoin:round;stroke-miterlimit:6.7;stroke-opacity:1"
         d="m 84.699739,84.633593 8.995833,8.334375 4.960937,8.202082 4.067971,5.9862 1.9513,3.07578 2.76191,3.06472 2.94326,1.78106"
         id="path25859"
         sodipodi:nodetypes="ccccccc" /><path
         style="opacity:1;fill:#f9f1db;fill-opacity:1;stroke:#000000;stroke-width:0.171;stroke-linecap:round;stroke-linejoin:round;stroke-miterlimit:6.7;stroke-opacity:1"
         d="m 73.355728,74.099869 2.10013,1.041797 1.86862,-0.214974 0.314193,-1.198448 2.097637,-0.307344 1.00153,0.05729 0.672665,1.097626 1.213868,-0.832497 -0.98402,-2.827106 -1.488139,0.355921 -2.711979,0.07441 -2.298567,-0.60358 -1.256771,1.256771 z"
         id="path25865"
         sodipodi:nodetypes="cccccccccccccc" /></g></g></svg>
